<svg width="580" height="400" xmlns="http://www.w3.org/2000/svg">
 <!-- Created with Method Draw - http://github.com/duopixel/Method-Draw/ -->

 <g>
  <title>background</title>
  <rect fill="#fff" id="canvas_background" height="402" width="582" y="-1" x="-1"/>
  <g display="none" overflow="visible" y="0" x="0" height="100%" width="100%" id="canvasGrid">
   <rect fill="url(#gridpattern)" stroke-width="0" y="0" x="0" height="100%" width="100%"/>
  </g>
 </g>
 <g>
  <title>Layer 1</title>
  <g stroke="null" id="svg_242">
   <g stroke="null" transform="matrix(0.39556490939597466,0,0,0.39001776462812077,-721.5917558670044,-391.34619998931885) " id="svg_181">
    <g stroke="null" id="svg_182">
     <path stroke="null" id="svg_183" fill="#E6E6E6" d="m2638.451549,1304.233443l0,169.831c0,7.511 -5.104,13.836 -12.042,15.676c-1.335,0.357 -2.737,0.546 -4.18,0.546l-273.666,0c-8.961,0 -16.223,-7.262 -16.223,-16.223l0,-169.83c0,-8.961 7.262,-16.223 16.223,-16.223l273.666,0c1.443,0 2.845,0.189 4.18,0.546c6.938,1.841 12.042,8.165 12.042,15.677z"/>
     <path stroke="null" id="svg_184" fill="#B3B3B3" d="m2638.449549,1304.231443l0,16.142l-306.11,0l0,-16.142c0,-8.961 7.262,-16.223 16.222,-16.223l273.666,0c8.961,0 16.222,7.262 16.222,16.223z"/>
     <circle stroke="null" id="svg_185" fill="#FC7A51" r="10.114" cy="1304.190443" cx="2354.589549"/>
     <circle stroke="null" id="svg_186" fill="#F9DE58" r="10.114" cy="1304.190443" cx="2381.559549"/>
    </g>
    <g stroke="null" id="svg_187">
     <rect stroke="null" id="svg_188" fill="#808080" height="11" width="235" y="1349.825443" x="2362.559549"/>
     <rect stroke="null" id="svg_189" fill="#808080" height="11" width="235" y="1373.916443" x="2362.559549"/>
     <rect stroke="null" id="svg_190" fill="#808080" height="11" width="235" y="1398.007443" x="2362.559549"/>
     <rect stroke="null" id="svg_191" fill="#808080" height="11" width="235" y="1422.099443" x="2362.559549"/>
     <rect stroke="null" id="svg_192" fill="#808080" height="11" width="235" y="1446.190443" x="2362.559549"/>
    </g>
    <path stroke="null" id="svg_193" fill="#FCD18B" d="m2637.452549,1510.211443l-40.93,37.75c-18.44,17.01 -46.85,17.01 -65.29,0l-40.92,-37.75c-11.06,-10.2 -16.84,-24.89 -15.72,-39.89l2.38,-49c0.25,-3.29 0.67,-6.53 1.28,-9.7c2.84,-15.07 9.53,-28.71 18.98,-39.91c4.2,-4.99 8.95,-9.49 14.15,-13.41c14.64,-11.07 32.85,-17.59 52.5,-17.59s37.86,6.53 52.5,17.59c2.35,1.77 4.61,3.66 6.77,5.66c2.61,2.43 5.08,5.01 7.38,7.74c9.45,11.2 16.14,24.84 18.98,39.92c0.61,3.17 1.03,6.41 1.28,9.7l2.37,49c1.13,14.999 -4.661,29.69 -15.71,39.89z"/>
    <path stroke="null" id="svg_194" fill="#FFFFFF" d="m2593.712549,1497.700443c0,3.104 -0.476,6.099 -1.357,8.906c-3.79,12.127 -15.107,20.925 -28.474,20.925c-13.375,0 -24.692,-8.797 -28.474,-20.925c-0.881,-2.808 -1.357,-5.802 -1.357,-8.906l59.662,0z"/>
    <path stroke="null" id="svg_195" fill="#F9DE58" d="m2675.373549,1412.931443l-13,0c0,-54.31 -44.185,-98.495 -98.494,-98.495c-54.311,0 -98.495,44.185 -98.495,98.495l-13,0c0,-61.479 50.017,-111.495 111.495,-111.495s111.494,50.017 111.494,111.495z"/>
    <path stroke="null" id="svg_196" fill="#808080" d="m2649.512549,1411.621443c-2.84,-15.08 -9.53,-28.72 -18.98,-39.92c-2.3,-2.73 -4.77,-5.31 -7.38,-7.74c-1.045,-0.969 -2.118,-1.907 -3.209,-2.824c-0.219,-0.184 -0.446,-0.357 -0.667,-0.538c-0.894,-0.736 -1.798,-1.459 -2.72,-2.159c-0.059,-0.045 -0.115,-0.094 -0.174,-0.138c-0.002,0.002 -0.004,0.004 -0.007,0.005c-14.643,-11.057 -32.847,-17.595 -52.493,-17.595c-19.651,0 -37.86,6.529 -52.498,17.592c0,0 -0.001,-0.001 -0.002,-0.002c-0.022,0.017 -0.042,0.035 -0.064,0.051c-1.208,0.915 -2.391,1.86 -3.549,2.835c-0.112,0.094 -0.225,0.188 -0.337,0.282c-1.108,0.943 -2.191,1.915 -3.251,2.911c-0.127,0.12 -0.256,0.237 -0.383,0.357c-1.066,1.015 -2.104,2.058 -3.117,3.125c-0.093,0.098 -0.188,0.193 -0.28,0.291c-1.088,1.156 -2.145,2.342 -3.169,3.557c-9.45,11.2 -16.14,24.84 -18.98,39.91c12.765,-3.477 24.129,-10.323 33.119,-19.504c13.34,13.625 31.938,22.084 52.511,22.084c20.574,0 39.164,-8.459 52.5,-22.079c8.994,9.181 20.363,16.027 33.13,19.499z"/>
    <g stroke="null" id="svg_197">
     <circle stroke="null" id="svg_198" fill="#808080" r="10" cy="1451.961443" cx="2524.878549"/>
     <circle stroke="null" id="svg_199" fill="#808080" r="10" cy="1451.961443" cx="2602.878549"/>
    </g>
    <g stroke="null" id="svg_200">
     <polygon stroke="null" id="svg_201" fill="#E6E6E6" points="2509.978515625,1538.9615478515625 2560.978515625,1589.9615478515625 2536.978515625,1628.9615478515625 2496.978515625,1548.9615478515625 "/>
     <polygon stroke="null" id="svg_202" fill="#E6E6E6" points="2617.778564453125,1538.9615478515625 2566.778564453125,1589.9615478515625 2590.778564453125,1628.9615478515625 2630.778564453125,1548.9615478515625 "/>
    </g>
    <polygon stroke="null" id="svg_203" fill="#2BE0C6" points="2578.0205078125,1622.9615478515625 2563.878662109375,1598.9615478515625 2549.736572265625,1622.9615478515625 2563.878662109375,1637.1033935546875 "/>
    <polygon stroke="null" id="svg_204" fill="#2BE0C6" points="2602.7646484375,1703.3123779296875 2563.878662109375,1637.3214111328125 2524.99365234375,1703.3123779296875 2563.878662109375,1742.1973876953125 "/>
    <path stroke="null" id="svg_205" fill="#FC7A51" d="m2514.842549,1512.961443c0,1.8 -0.73,3.42 -1.9,4.6c-1.18,1.17 -2.8,1.9 -4.6,1.9l-30.73,0c-14.42,0 -26.11,-11.69 -26.11,-26.11l0,-17.39l13,0l0,17.39c0,7.24 5.87,13.11 13.11,13.11l30.73,0c3.59,0 6.5,2.909 6.5,6.5z"/>
    <g stroke="null" id="svg_206">
     <path stroke="null" id="svg_207" fill="#29ABE2" d="m2467.340549,1401.861443c-22.556,0 -40.841,18.285 -40.841,40.841s18.285,40.841 40.841,40.841"/>
     <path stroke="null" id="svg_208" fill="#29ABE2" d="m2660.416549,1401.861443c22.556,0 40.841,18.285 40.841,40.841s-18.285,40.841 -40.841,40.841"/>
    </g>
    <path stroke="null" id="svg_209" fill="#808080" d="m2514.842549,1512.961443c0,1.8 -0.73,3.42 -1.9,4.6c-1.18,1.17 -2.8,1.9 -4.6,1.9l-19,0l0,-13l19,0c3.59,0 6.5,2.909 6.5,6.5z"/>
    <g stroke="null" id="svg_210">
     <path stroke="null" id="svg_211" fill="#808080" d="m2769.729549,1712.862443l-120.226,0c-6.565,0 -11.887,-5.322 -11.887,-11.887l0,-155.226c0,-6.565 5.322,-11.887 11.887,-11.887l120.227,0c6.565,0 11.887,5.322 11.887,11.887l0,155.227c-0.001,6.564 -5.323,11.886 -11.888,11.886z"/>
     <rect stroke="null" id="svg_212" fill="#E6E6E6" height="149" width="114" y="1548.862443" x="2652.616549"/>
     <path stroke="null" id="svg_213" fill="#29ABE2" d="m2723.044549,1525.862443l-26.855,0c-4.182,0 -7.572,3.39 -7.572,7.572l0,25.428l42,0l0,-25.428c-0.001,-4.182 -3.392,-7.572 -7.573,-7.572z"/>
     <g stroke="null" id="svg_214">
      <rect stroke="null" id="svg_215" fill="#29ABE2" height="11" width="86" y="1573.862443" x="2666.616549"/>
      <rect stroke="null" id="svg_216" fill="#29ABE2" height="11" width="86" y="1597.954443" x="2666.616549"/>
      <rect stroke="null" id="svg_217" fill="#29ABE2" height="11" width="86" y="1622.045443" x="2666.616549"/>
      <rect stroke="null" id="svg_218" fill="#29ABE2" height="11" width="86" y="1646.136443" x="2666.616549"/>
      <rect stroke="null" id="svg_219" fill="#29ABE2" height="11" width="43" y="1670.228443" x="2666.616549"/>
     </g>
    </g>
    <path stroke="null" id="svg_220" fill="#FC7A51" d="m2388.168549,1527.374443c-30.369,0 -54.987,24.619 -54.987,54.987c0,17.057 7.768,32.3 19.958,42.385l-11.133,31.173l28.672,-21.413l-0.013,-0.02c5.5,1.846 11.382,2.862 17.504,2.862c30.368,0 54.987,-24.619 54.987,-54.987s-24.619,-54.987 -54.988,-54.987z"/>
    <g stroke="null" id="svg_221">
     <path stroke="null" id="svg_222" fill="#FFFFFF" d="m2379.826549,1591.304443c0,-3.263 0.533,-6.194 1.599,-8.792c1.065,-2.598 3.263,-4.861 6.594,-6.794c0.999,-0.599 2.231,-1.282 3.697,-2.048c1.464,-0.765 2.897,-1.681 4.296,-2.747c1.399,-1.065 2.58,-2.314 3.547,-3.747c0.965,-1.431 1.449,-3.08 1.449,-4.945c0,-1.399 -0.267,-2.63 -0.799,-3.697c-0.534,-1.065 -1.233,-1.964 -2.098,-2.697c-0.867,-0.732 -1.883,-1.282 -3.047,-1.649c-1.166,-0.365 -2.348,-0.549 -3.546,-0.549c-1.466,0 -2.798,0.25 -3.997,0.749s-2.282,1.133 -3.247,1.898c-0.967,0.767 -1.833,1.633 -2.598,2.598c-0.766,0.966 -1.416,1.883 -1.948,2.748l-8.692,-5.995c0.865,-2.064 2.014,-3.896 3.447,-5.495c1.431,-1.599 3.063,-2.947 4.895,-4.046c1.831,-1.099 3.812,-1.931 5.945,-2.497c2.131,-0.565 4.329,-0.849 6.594,-0.849c2.531,0 5.029,0.367 7.494,1.099c2.463,0.734 4.678,1.898 6.644,3.497c1.964,1.599 3.562,3.647 4.795,6.144c1.232,2.498 1.848,5.479 1.848,8.942c0,2.132 -0.249,4.013 -0.749,5.645c-0.499,1.633 -1.217,3.114 -2.148,4.446c-0.933,1.333 -2.033,2.532 -3.297,3.597c-1.266,1.066 -2.698,2.098 -4.296,3.097c-1.333,0.799 -2.665,1.566 -3.997,2.298c-1.333,0.734 -2.548,1.549 -3.647,2.448c-1.099,0.899 -1.998,1.932 -2.698,3.097c-0.699,1.166 -1.049,2.582 -1.049,4.246l-10.991,0l0,-0.002zm0.2,23.278l0,-13.787l11.09,0l0,13.787l-11.09,0z"/>
    </g>
    <g stroke="null" id="svg_223">
     <path stroke="null" id="svg_224" fill="#29ABE2" d="m2516.245549,1609.132443l11.133,-31.173l-28.672,21.413l0.013,0.02c-5.5,-1.846 -11.382,-2.862 -17.504,-2.862c-30.369,0 -54.987,24.619 -54.987,54.987s24.618,54.987 54.987,54.987c30.368,0 54.987,-24.619 54.987,-54.987c0.001,-17.057 -7.767,-32.299 -19.957,-42.385z"/>
     <g stroke="null" id="svg_225">
      <path stroke="null" id="svg_226" fill="#FFFFFF" d="m2475.373549,1659.668443l0,-39.244l11.687,0l0,39.244l-11.687,0zm0,23.285l0,-13.168l11.687,0l0,13.168l-11.687,0z"/>
     </g>
    </g>
   </g>
   <g stroke="null" transform="matrix(0.39556490939597466,0,0,0.39001776462812077,-721.5917558670044,-391.34619998931885) " id="svg_227"/>
   <g stroke="null" transform="matrix(0.39556490939597466,0,0,0.39001776462812077,-721.5917558670044,-391.34619998931885) " id="svg_228"/>
   <g stroke="null" transform="matrix(0.39556490939597466,0,0,0.39001776462812077,-721.5917558670044,-391.34619998931885) " id="svg_229"/>
   <g stroke="null" transform="matrix(0.39556490939597466,0,0,0.39001776462812077,-721.5917558670044,-391.34619998931885) " id="svg_230"/>
   <g stroke="null" transform="matrix(0.39556490939597466,0,0,0.39001776462812077,-721.5917558670044,-391.34619998931885) " id="svg_231"/>
   <g stroke="null" transform="matrix(0.39556490939597466,0,0,0.39001776462812077,-721.5917558670044,-391.34619998931885) " id="svg_232"/>
   <g stroke="null" transform="matrix(0.39556490939597466,0,0,0.39001776462812077,-721.5917558670044,-391.34619998931885) " id="svg_233"/>
   <g stroke="null" transform="matrix(0.39556490939597466,0,0,0.39001776462812077,-721.5917558670044,-391.34619998931885) " id="svg_234"/>
   <g stroke="null" transform="matrix(0.39556490939597466,0,0,0.39001776462812077,-721.5917558670044,-391.34619998931885) " id="svg_235"/>
   <g stroke="null" transform="matrix(0.39556490939597466,0,0,0.39001776462812077,-721.5917558670044,-391.34619998931885) " id="svg_236"/>
   <g stroke="null" transform="matrix(0.39556490939597466,0,0,0.39001776462812077,-721.5917558670044,-391.34619998931885) " id="svg_237"/>
   <g stroke="null" transform="matrix(0.39556490939597466,0,0,0.39001776462812077,-721.5917558670044,-391.34619998931885) " id="svg_238"/>
   <g stroke="null" transform="matrix(0.39556490939597466,0,0,0.39001776462812077,-721.5917558670044,-391.34619998931885) " id="svg_239"/>
   <g stroke="null" transform="matrix(0.39556490939597466,0,0,0.39001776462812077,-721.5917558670044,-391.34619998931885) " id="svg_240"/>
   <g stroke="null" transform="matrix(0.39556490939597466,0,0,0.39001776462812077,-721.5917558670044,-391.34619998931885) " id="svg_241"/>
  </g>
 </g>
</svg>